<svg width="800px" height="800px" enable-background="new 0 0 64 64" version="1.0" viewBox="0 0 64 64" xml:space="preserve" xmlns="http://www.w3.org/2000/svg">
<path d="m32 0c-17.671982 0-32 14.328018-32 32s14.328018 32 32 32 32-14.328018 32-32c0-5.039861-1.165821-9.807464-3.241719-14.048594-1.861056 1.768524-4.377882 2.853906-7.149062 2.853906-5.730901 0-10.376563-4.6457-10.376563-10.377343 0-2.7769006 1.090366-5.2990958 2.866407-7.1615627-4.253753-2.0913792-9.039213-3.2664063-14.099063-3.2664063zm14.099063 3.2664063c2.122661 1.0436175 4.113051 2.3152814 5.93875 3.7834374v-1.908125h3.190937v3.6370313h3.666094v3.190938h-1.93875c1.477244 1.838118 2.755368 3.843031 3.802187 5.981718 1.98967-1.890741 3.229844-4.562282 3.229844-7.523437 0-5.7316435-4.645036-10.37812525-10.378906-10.37812525-2.954361 0-5.620372 1.23481655-7.510156 3.21656255zm10.857031 8.7032817c-1.456568-1.812392-3.106334-3.4627467-4.918281-4.9198443v1.7289063h-3.711875v3.190938h3.712656v3.742343h3.190937v-3.742343h1.726563zm-24.956094 0.030312c2.210998 0 4 1.789002 4 4v14.344062l6.859063 6.858907c1.566998 1.566998 1.546998 4.078095-0.015001 5.641093-1.565998 1.565999-4.168064 1.487874-5.734062-0.078125l-7.934063-7.933906c-0.370999-0.366999-0.663875-0.812-0.866875-1.305-0.203999-0.487999-0.309062-1.004032-0.309062-1.527031v-16c0-2.210998 1.789002-4 4-4z"/>
<g transform="matrix(.74224928 0 0 .74224928 43.232585 .04985311)"/></svg>
