<?xml version="1.0" encoding="UTF-8" standalone="no"?>
<!-- Created with Inkscape (http://www.inkscape.org/) -->

<svg
   width="13.556726mm"
   height="9.504385mm"
   viewBox="0 0 13.556726 9.504385"
   version="1.1"
   id="svg856"
   inkscapeVersion="1.1 (c68e22c387, 2021-05-23)"
   sodipodiDocname="barking.svg"
   xmlnsInkscape="http://www.inkscape.org/namespaces/inkscape"
   xmlnsSodipodi="http://sodipodi.sourceforge.net/DTD/sodipodi-0.dtd"
   xmlns="http://www.w3.org/2000/svg"
   xmlnsSvg="http://www.w3.org/2000/svg">
  <sodipodiNamedview
     id="namedview858"
     pagecolor="#ffffff"
     bordercolor="#666666"
     borderopacity="1.0"
     inkscapePageshadow="2"
     inkscapePageopacity="0.0"
     inkscapePagecheckerboard="0"
     inkscapeDocument-units="mm"
     showgrid="false"
     inkscapeZoom="6.8737763"
     inkscapeCx="37.388473"
     inkscapeCy="46.1173"
     inkscapeWindow-width="1856"
     inkscapeWindow-height="1050"
     inkscapeWindow-x="0"
     inkscapeWindow-y="0"
     inkscapeWindow-maximized="1"
     inkscapeCurrent-layer="layer1" />
  <defs
     id="defs853" />
  <g
     inkscapeLabel="Capa 1"
     inkscapeGroupmode="layer"
     id="layer1"
     transform="translate(-116.89906,-69.715549)">
    <rect
       x="126.78072"
       y="75.684303"
       width="3.6750627"
       height="0.73474789"
       id="rect4"
       style="stroke-width:0.264583" />
    <rect
       x="72.459839"
       y="126.98914"
       transform="rotate(-29.854323)"
       width="3.6750884"
       height="0.73475307"
       id="rect6"
       style="stroke-width:0.264585" />
    <rect
       x="-1.335333"
       y="144.47745"
       transform="rotate(-60.225271)"
       width="3.6748631"
       height="0.73502558"
       id="rect8"
       style="stroke-width:0.264588" />
    <path
       d="m 122.73868,76.419054 1.47029,-2.572279 -1.8378,-2.939785 -3.33295,3.725333 -1.8116,-0.418041 0.4773,1.909498 -0.80486,0.899583 5.15647,2.196571 2.52042,-2.80088 z M 120.71753,75.3168 c -0.30427,0 -0.55139,-0.246591 -0.55139,-0.551127 0,-0.304535 0.24712,-0.551127 0.55139,-0.551127 0.30427,0 0.55113,0.246592 0.55113,0.551127 0,0.304271 -0.2466,0.551127 -0.55113,0.551127 z"
       id="path10"
       style="stroke-width:0.264583" />
  </g>
</svg>
