<?xml version="1.0" encoding="UTF-8" standalone="no"?>
<svg
   version="1.1"
   viewBox="0 0 93.660157 54.150242"
   x="0px"
   y="0px"
   id="svg2"
   inkscapeVersion="1.1 (c68e22c387, 2021-05-23)"
   sodipodiDocname="bone-heart.svg"
   width="93.660156"
   height="54.150242"
   xmlnsInkscape="http://www.inkscape.org/namespaces/inkscape"
   xmlnsSodipodi="http://sodipodi.sourceforge.net/DTD/sodipodi-0.dtd"
   xmlns="http://www.w3.org/2000/svg"
   xmlnsSvg="http://www.w3.org/2000/svg"
   xmlnsRdf="http://www.w3.org/1999/02/22-rdf-syntax-ns#"
   xmlnsCc="http://creativecommons.org/ns#"
   xmlnsDc="http://purl.org/dc/elements/1.1/">
  <metadata
     id="metadata14">
    <rdfRDF>
      <ccWork
         rdfAbout="">
        <dcFormat>image/svg+xml</dcFormat>
        <dcType
           rdfResource="http://purl.org/dc/dcmitype/StillImage" />
      </ccWork>
    </rdfRDF>
  </metadata>
  <defs
     id="defs12">
    <linearGradient
       id="linearGradient2825"
       inkscapeSwatch="solid">
      <stop
         style="stop-color:#46433c;stop-opacity:0.55686277;"
         offset="0"
         id="stop2823" />
    </linearGradient>
    <linearGradient
       id="linearGradient2797"
       inkscapeSwatch="solid">
      <stop
         style="stop-color:#46433c;stop-opacity:1;"
         offset="0"
         id="stop2795" />
    </linearGradient>
  </defs>
  <sodipodiNamedview
     pagecolor="#ffffff"
     bordercolor="#666666"
     borderopacity="1"
     objecttolerance="10"
     gridtolerance="10"
     guidetolerance="10"
     inkscapePageopacity="0"
     inkscapePageshadow="2"
     inkscapeWindow-width="1581"
     inkscapeWindow-height="878"
     id="namedview10"
     showgrid="false"
     fit-margin-top="0"
     fit-margin-left="0"
     fit-margin-right="0"
     fit-margin-bottom="0"
     inkscapeZoom="3.9333334"
     inkscapeCx="39.27966"
     inkscapeCy="31.271186"
     inkscapeWindow-x="30"
     inkscapeWindow-y="26"
     inkscapeWindow-maximized="0"
     inkscapeCurrent-layer="svg2"
     inkscapePagecheckerboard="0" />
  <path
     id="path4"
     style="fill:#000000"
     d="M 32.160156,0.00571202 A 15.72,15.72 0 0 0 19.140625,7.6541495 c 2.731229,1.5501409 4.863171,4.0743075 5.871094,7.1621095 H 68.652344 C 69.66255,11.728727 71.793306,9.2043267 74.523438,7.6541495 A 15.75,15.75 0 0 0 61.115234,0.15024332 15.72,15.72 0 0 0 46.865234,9.1502433 15.72,15.72 0 0 0 32.160156,0.00571202 Z M 74.523438,7.6541495 a 15.75,15.75 0 0 1 2.341796,8.2460935 c 0,7.398633 -6.037004,15.840464 -12.691406,22.916016 h 4.478516 c 1.696,5.207999 6.583687,8.835937 12.179687,8.835937 7.076,0 12.828125,-5.755938 12.828125,-12.835937 0,-2.908 -1.01575,-5.736001 -2.84375,-8 1.828,-2.268 2.84375,-5.092001 2.84375,-8 0,-7.08 -5.752125,-12.8359376 -12.828125,-12.8359376 -2.278445,0 -4.433582,0.6091908 -6.308593,1.6738281 z M 64.173828,38.816259 h -34.61914 c 8.185898,8.704017 17.310546,15.333984 17.310546,15.333984 0,0 9.122737,-6.630053 17.308594,-15.333984 z m -34.61914,0 C 22.90035,31.740742 16.865234,23.298816 16.865234,15.900243 A 15.72,15.72 0 0 1 19.140625,7.6541495 C 17.265264,6.5897661 15.110186,5.9803214 12.832031,5.9803214 5.7560312,5.9803214 0,11.736259 0,18.816259 c 0,2.908 1.01975,5.732 2.84375,8 -1.824,2.264 -2.84375,5.092 -2.84375,8 0,7.079999 5.7520313,12.835937 12.832031,12.835937 5.596,0 10.479688,-3.627938 12.179688,-8.835937 z" />
</svg>
