<?xml version="1.0" encoding="UTF-8" standalone="no"?>
<svg
   width="24"
   height="24"
   viewBox="0 0 24 24"
   version="1.1"
   id="svg4"
   sodipodiDocname="iconmonstr-time-3.svg"
   inkscapeVersion="1.1 (c68e22c387, 2021-05-23)"
   xmlnsInkscape="http://www.inkscape.org/namespaces/inkscape"
   xmlnsSodipodi="http://sodipodi.sourceforge.net/DTD/sodipodi-0.dtd"
   xmlns="http://www.w3.org/2000/svg"
   xmlnsSvg="http://www.w3.org/2000/svg">
  <defs
     id="defs8" />
  <sodipodiNamedview
     id="namedview6"
     pagecolor="#ffffff"
     bordercolor="#666666"
     borderopacity="1.0"
     inkscapePageshadow="2"
     inkscapePageopacity="0.0"
     inkscapePagecheckerboard="0"
     showgrid="false"
     inkscapeZoom="28.416667"
     inkscapeCx="12"
     inkscapeCy="12"
     inkscapeWindow-width="1856"
     inkscapeWindow-height="1050"
     inkscapeWindow-x="0"
     inkscapeWindow-y="0"
     inkscapeWindow-maximized="1"
     inkscapeCurrent-layer="svg4" />
  <path
     style="color:#000000;fill:#000000;-inkscape-stroke:none"
     d="M 12,2 C 17.514,2 22,6.486 22,12 22,17.514 17.514,22 12,22 6.486,22 2,17.514 2,12 2,6.486 6.486,2 12,2 Z M 12,0 C 5.373,0 0,5.373 0,12 0,18.627 5.373,24 12,24 18.627,24 24,18.627 24,12 24,5.373 18.627,0 12,0 Z m 5.848,12.459 c 0.202,0.038 0.202,0.333 0.001,0.372 -1.907,0.361 -6.045,1.111 -6.547,1.111 -0.719,0 -1.301,-0.582 -1.301,-1.301 0,-0.512 0.77,-5.447 1.125,-7.445 0.034,-0.192 0.312,-0.181 0.343,0.014 l 0.985,6.238 z"
     id="path2" />
</svg>
