<svg id="_x32_" width="775.04974" height="784.07153" version="1.1" viewBox="0 0 496.03184 501.80578" xml:space="preserve" xmlns="http://www.w3.org/2000/svg">
<style type="text/css">
	.st0{fill:#000000;}
</style>
<g transform="matrix(.69282032 -.4 .4 .69282032 -69.931189 225.26864)">
	<path class="st0" d="m439.464 51.073c-6.026-13.266-13.941-25.629-24.903-35.19-10.87-9.57-25.367-15.967-41.621-15.882-8.295-8e-3 -16.126 1.739-23.054 4.751-12.177 5.3-21.367 14.101-28.414 23.535-10.548 14.212-16.793 30.254-20.759 42.912-1.055 3.409-1.933 6.548-2.667 9.375h-84.102c-2.127-8.312-5.612-19.578-11.063-31.308-5.291-11.232-12.354-22.954-22.658-32.532-5.148-4.768-11.164-8.978-18.11-11.983-6.929-3.012-14.768-4.76-23.055-4.751-16.16-0.085-30.615 6.135-41.519 15.544-16.446 14.195-26.226 34.406-32.631 55.309-6.321 20.987-9.013 42.945-9.03 61.696v181.932c8e-3 15.916 2.482 35.696 8.616 56.894 9.215 31.713 26.785 66.751 57.671 94.21 30.81 27.494 75.021 46.515 133.831 46.414 39.215 0.016 71.933-8.312 98.523-22.144 39.966-20.742 65.544-53.434 80.802-86.068 15.3-32.768 20.759-65.485 20.801-89.307v-181.932c-0.076-24.193-4.725-54.86-16.658-81.475zm-14.531 263.408c8e-3 12.666-2.068 29.924-7.384 48.202-7.966 27.493-23.106 57.148-48.414 79.569-25.375 22.397-60.844 38.456-113.139 38.557-34.86-0.016-62.236-7.274-84.135-18.625-32.768-17.029-53.789-43.67-66.945-71.636-8.506-18.059-13.468-36.625-15.907-52.675h64.574c49.443 0 82.405-47.586 82.405-86.042v-140.076h87.874l2.109-13.097c0.025-0.414 3.392-19.536 11.797-37.012 4.144-8.735 9.528-16.92 15.469-22.27 2.979-2.7 6.033-4.725 9.198-6.076 3.198-1.35 6.523-2.102 10.506-2.11 8.439 0.084 14.734 2.768 21.173 8.245 9.553 8.118 17.908 23.586 23.114 41.198 5.308 17.518 7.73 36.928 7.706 51.915-1e-3 28.592-1e-3 140.347-1e-3 181.933z"/>
	<path class="st0" d="m253.397 350.86c-22.963 0-41.579 13.975-41.579 31.19 0 17.224 18.616 31.19 41.579 31.19 22.97 0 41.586-13.966 41.586-31.19 1e-3 -17.215-18.615-31.19-41.586-31.19z"/>
	<circle class="st0" cx="333.97101" cy="249.502" r="25.992001"/>
	<path class="st0" d="m372.08 71.039c-17.316 0-20.793 36.388-20.793 36.388h38.126c0-1e-3 -0.017-36.388-17.333-36.388z"/>
</g>
<path d="m361.41696 65.22897c5.71988-16.816638 24.6219-31.095635 49.28153-31.095635 30.4896 0 51.2 21.171882 51.2 42.666665 0 21.494792-20.7104 42.66667-51.2 42.66667-9.42592 0-17.06667 7.64074-17.06667 17.06666v34.13334c0 9.42592 7.64075 17.06666 17.06667 17.06666s17.06667-7.64074 17.06667-17.06666v-18.63339c37.59786-6.96491 68.26666-36.48171 68.26666-75.23328 0-44.484777-40.41557-76.8-85.33333-76.8-37.18878 0-70.53176 21.706242-81.59676 54.237697-3.03513 8.923473 1.73841 18.618023 10.66189 21.653163 8.92365 3.0353 18.6182-1.73824 21.65334-10.66189zm49.28153 207.8377c14.13973 0 25.6-11.46198 25.6-25.6 0-14.13803-11.46027-25.6-25.6-25.6-14.13803 0-25.6 11.46197-25.6 25.6 0 14.13802 11.46197 25.6 25.6 25.6z" clip-rule="evenodd" fill-rule="evenodd" stroke-width="17.0666"/></svg>
