<svg width="279.81668pt" height="280.26511pt" preserveAspectRatio="xMidYMid" version="1.0" viewBox="0 0 279.81668 280.26511" xmlns="http://www.w3.org/2000/svg">
 <g transform="matrix(.05 0 0 -.05 -8.1833333 296.00455)">
  <path d="m401 5855c-80-48-123-93-169-175l-62-110-5-2586c-4-1783 1-2597 15-2625 27-50 1176-62 1217-13 12 15 24 133 27 271l6 244 1332-1c1115 0 1336 4 1356 27 61 74 293 1126 342 1553 13 105 29 208 36 230 8 22 19-495 24-1150l10-1190 570-6c314-3 590 0 615 6l45 11v2614c-1 2927 11 2694-143 2839-141 134 38 126-2662 126h-2447zm4109-1220c-1-410-106-1536-201-2138-72-465-279-1413-315-1450-5-5-2914-12-3079-7-7 0-5 25 7 55 201 527 416 1996 489 3345l12 230 1544-5c1231-3 1543-9 1543-30z"/>
  <path d="m3966 4275c-11-14-30-178-44-365-30-416-74-854-113-1119-38-260-38-268 22-295 97-44 119 11 166 414 93 785 131 1297 102 1352-23 43-104 51-133 13z"/>
  <path d="m3708 2097c-7-12-39-140-70-285-31-144-62-281-69-304-29-100 120-143 164-48 53 113 136 595 108 629-30 36-112 41-133 8z"/>
 </g>
 <path d="m37.551454 243.52708c0-0.23115 0.785898-2.77354 1.746441-5.64975 9.878008-29.57837 19.577701-98.44958 23.336644-165.698326 0.283147-5.06559 0.602504-9.297855 0.709682-9.40503 0.309682-0.309683 146.281929 0.6267 149.965659 0.961995 1.82528 0.16614 3.44788 0.442297 3.60578 0.613687 0.34743 0.377108-0.11974 12.764063-0.87754 23.267985-1.98066 27.454159-5.2273 58.259979-8.40219 79.724449-3.35444 22.67838-14.05551 72.82424-16.15263 75.69222-0.44274 0.60549-4.05219 0.64168-77.19815 0.77412-58.830881 0.10651-76.733696 0.0409-76.733696-0.28135zm139.126706-18.33098c0.54847-0.28362 1.23653-0.88422 1.52904-1.33467 2.08282-3.20749 5.65411-20.8182 5.75056-28.35716 0.0516-4.03447 0.0485-4.0504-0.93605-4.79211-1.4349-1.08098-4.71501-1.05686-5.60417 0.0412-0.34979 0.43196-1.20614 3.14897-1.903 6.0378-2.27088 9.41392-5.56354 24.51785-5.56354 25.52077 0 0.63954 0.4201 1.39973 1.2101 2.18973 1.02919 1.02919 1.45751 1.2101 2.86498 1.2101 0.91017 0 2.10361-0.23205 2.65208-0.51567zm10.14238-53.44041c0.85976-0.32992 1.87638-2.23182 2.51304-4.70144 0.83512-3.23942 2.07847-12.43943 3.90533-28.897 2.89412-26.07219 4.27716-43.359626 4.06408-50.799431-0.11881-4.1481-0.16873-4.396838-1.06154-5.288715-1.71853-1.716743-5.94546-1.408778-6.49041 0.472875-0.55981 1.932967-1.36335 9.580095-2.36587 22.515381-1.53386 19.79101-3.40982 37.87221-5.35437 51.60735-1.26784 8.95528-1.45441 12.42504-0.71597 13.31561 1.19234 1.43797 4.01393 2.34782 5.50571 1.77537z" fill-opacity=".3" stroke-miterlimit="5" stroke-width="1.42365"/>
</svg>
