<?xml version="1.0" encoding="UTF-8" standalone="no"?>
<!-- Created with Inkscape (http://www.inkscape.org/) -->

<svg
   width="5.2917576mm"
   height="4.7756915mm"
   viewBox="0 0 5.2917576 4.7756915"
   version="1.1"
   id="svg830"
   inkscape:version="1.1.1 (3bf5ae0d25, 2021-09-20)"
   sodipodi:docname="heartpaw.svg"
   xmlns:inkscape="http://www.inkscape.org/namespaces/inkscape"
   xmlns:sodipodi="http://sodipodi.sourceforge.net/DTD/sodipodi-0.dtd"
   xmlns="http://www.w3.org/2000/svg"
   xmlns:svg="http://www.w3.org/2000/svg">
  <sodipodi:namedview
     id="namedview832"
     pagecolor="#ffffff"
     bordercolor="#666666"
     borderopacity="1.0"
     inkscape:pageshadow="2"
     inkscape:pageopacity="0.0"
     inkscape:pagecheckerboard="0"
     inkscape:document-units="mm"
     showgrid="false"
     inkscape:zoom="38.88395"
     inkscape:cx="10.595631"
     inkscape:cy="10.158433"
     inkscape:window-width="1856"
     inkscape:window-height="1050"
     inkscape:window-x="0"
     inkscape:window-y="0"
     inkscape:window-maximized="1"
     inkscape:current-layer="layer1" />
  <defs
     id="defs827" />
  <g
     inkscape:label="Capa 1"
     inkscape:groupmode="layer"
     id="layer1"
     transform="translate(-60.063799,-120.41861)">
    <g
       style="fill:#000000;fill-rule:evenodd"
       id="g993"
       transform="matrix(0.00677334,0,0,0.00677333,60.692426,119.41907)">
      <g
         id="g3023"
         transform="translate(269.81467,-650.62904)"
         style="fill:#000000">
        <path
           id="path1088"
           style="fill:#000000;stroke:none"
           d="m -35.2275,1118.5 c -8.1924,14.15 -46.1563,60.99 -72.4145,76.97 -26.256,15.98 -58.792,39.38 -53.332,93.11 5.457,53.74 60.575,76.74 96.8597,74.7 36.2867,-2.03 104.6993,-8.71 153.543,-1.94 48.8413,6.77 110.4863,1.64 124.9223,-49.81 14.436,-51.45 -17.85,-84.23 -43.044,-102.83 -25.193,-18.59 -67.265,-74.2 -80.2269,-99.73 -12.96,-25.52 -78.9268,-72.26 -126.3076,9.53 z M 49.2676,937.803 c -11.6446,54.068 6.1084,103.767 39.6738,110.997 33.5676,7.24 70.2256,-30.73 81.8776,-84.797 11.654,-54.069 -6.109,-103.765 -39.678,-110.998 -33.5678,-7.234 -70.225,30.729 -81.8734,84.798 z m -42.482,-0.046 c 11.6548,54.069 -6.1108,103.763 -39.6787,111.003 -33.5654,7.23 -70.2249,-30.74 -81.8779,-84.804 -11.653,-54.068 6.112,-103.764 39.6792,-110.997 33.5669,-7.236 70.2246,30.729 81.8774,84.798 z M 183.155,1038.85 c -22.738,50.44 -15.793,102.75 15.512,116.87 31.303,14.12 75.106,-15.31 97.846,-65.74 22.734,-50.43 15.789,-102.745 -15.513,-116.863 -31.301,-14.114 -75.108,15.317 -97.845,65.733 z m -309.422,0 c 22.737,50.44 15.792,102.75 -15.51,116.87 -31.303,14.12 -75.11,-15.31 -97.845,-65.74 -22.737,-50.43 -15.793,-102.745 15.51,-116.863 31.303,-14.114 75.108,15.317 97.845,65.733 z M 213.56089,800.14634 A 204.6873,204.68761 0 0 0 28.014318,917.3339 204.6873,204.68761 0 0 0 -362.6104,1005.2242 c 0,214.8441 390.624718,498.0475 390.624718,498.0475 0,0 390.624562,-283.2034 390.624562,-498.0475 A 205.07792,205.07823 0 0 0 213.56089,800.14634 Z" />
      </g>
    </g>
  </g>
</svg>
