<?xml version="1.0" encoding="iso-8859-1"?>
<!-- Uploaded to: SVG Repo, www.svgrepo.com, Generator: SVG Repo Mixer Tools -->
<svg fill="#000000" height="800px" width="800px" version="1.1" id="Layer_1" xmlns="http://www.w3.org/2000/svg" xmlns:xlink="http://www.w3.org/1999/xlink" 
	 viewBox="0 0 512 512" xml:space="preserve">
<path d="M506.477,236.488l-95.417-85.953c0,0,0,0-0.001,0L267.178,20.916c-6.354-5.724-16.003-5.724-22.357,0L100.941,150.535
	c0,0,0,0-0.001,0L5.523,236.488c-6.853,6.174-7.404,16.733-1.23,23.587c6.174,6.854,16.734,7.403,23.587,1.23l67.538-60.84v278.21
	c0,9.223,7.477,16.701,16.701,16.701h68.254V360.825c0-41.702,33.927-75.629,75.629-75.629s75.629,33.927,75.629,75.629v134.552
	h68.254c9.223,0,16.701-7.477,16.701-16.701v-278.21l67.539,60.84c6.856,6.176,17.417,5.619,23.587-1.23
	C513.881,253.222,513.33,242.662,506.477,236.488z M314.929,219.295H197.072c-9.223,0-16.701-7.477-16.701-16.701
	s7.477-16.701,16.701-16.701h117.856c9.223,0,16.701,7.477,16.701,16.701S324.152,219.295,314.929,219.295z"/>
</svg>