<?xml version="1.0" encoding="UTF-8"?>
<!-- Created with Inkscape (http://www.inkscape.org/) -->
<svg width="15.854282mm" height="9.8455496mm" inkscapeVersion="1.1 (c68e22c387, 2021-05-23)" sodipodiDocname="logo.svg" version="1.1" viewBox="0 0 15.854282 9.8455496" xmlns="http://www.w3.org/2000/svg" xmlnsSvg="http://www.w3.org/2000/svg">
 <sodipodiNamedview bordercolor="#666666" borderopacity="1.0" fit-margin-bottom="0" fit-margin-left="0" fit-margin-right="0" fit-margin-top="0" inkscapeCurrent-layer="g855" inkscapeCx="6.1101785" inkscapeCy="14.402564" inkscapeDocument-units="mm" inkscapePagecheckerboard="0" inkscapePageopacity="0.0" inkscapePageshadow="2" inkscapeWindow-height="1022" inkscapeWindow-maximized="1" inkscapeWindow-width="1920" inkscapeWindow-x="0" inkscapeWindow-y="0" inkscapeZoom="54.99021" pagecolor="#ffffff" showgrid="false"/>
 <g transform="translate(-64.798664,-71.286903)" inkscapeGroupmode="layer" inkscapeLabel="Capa 1">
  <g fill="#55a74d" stroke-width=".264583">
   <path d="m64.803839 78.491796h0.811318c0 0.389295 0.06201 0.704519 0.186034 0.945676 0.124023 0.241155 0.296278 0.416854 0.516763 0.527095 0.220485 0.113689 0.471974 0.170532 0.754473 0.170532 0.258381 0 0.501258-0.05684 0.728636-0.170532 0.227375-0.110241 0.409963-0.28594 0.547766-0.527095 0.141251-0.241157 0.211873-0.556381 0.211873-0.945676h0.811316c0 0.568439-0.09302 1.049028-0.289385 1.441767-0.196369 0.39274-0.468532 0.69074-0.816486 0.893998-0.344509 0.203261-0.738971 0.30489-1.183386 0.30489-0.482311 0-0.893998-0.101629-1.235062-0.30489-0.341063-0.203258-0.601167-0.501258-0.780311-0.893998-0.1757-0.392739-0.263549-0.873328-0.263549-1.441767z" sodipodiNodetypes="ccscsccccscsscc"/>
   <path d="m68.5607 78.491796h0.811318c0 0.389295 0.06201 0.704519 0.186034 0.945676 0.124023 0.241155 0.296278 0.416854 0.516763 0.527095 0.220485 0.113689 0.471974 0.170532 0.754473 0.170532 0.258381 0 0.501258-0.05684 0.728636-0.170532 0.227375-0.110241 0.409963-0.28594 0.547766-0.527095 0.141251-0.241157 0.211873-0.556381 0.211873-0.945676l0.811319-2e-6c0 0.568439-0.09302 1.04903-0.289388 1.441769-0.196369 0.39274-0.468532 0.69074-0.816486 0.893998-0.344509 0.203261-0.738971 0.30489-1.183386 0.30489-0.482311 0-0.893998-0.101629-1.235062-0.30489-0.341063-0.203258-0.601167-0.501258-0.780311-0.893998-0.1757-0.392739-0.263549-0.873328-0.263549-1.441767z" sodipodiNodetypes="ccscsccccscsscc"/>
   <path d="m72.311828 78.491794 0.817056 2e-6c0 0.389296 0.06201 0.70452 0.186034 0.945676 0.124023 0.241155 0.296278 0.416854 0.516763 0.527095 0.220485 0.11369 0.471974 0.170533 0.754473 0.170533 0.25838 0 0.50126-0.05684 0.72864-0.170533 0.227373-0.110241 0.409963-0.285939 0.547763-0.527095 0.14125-0.241156 0.21188-0.55638 0.21188-0.945676h0.81648c0 0.568439-0.0982 1.049028-0.29455 1.441767-0.19637 0.392741-0.46854 0.690741-0.81649 0.893999-0.34451 0.203261-0.738973 0.30489-1.183389 0.30489-0.482311 0-0.893998-0.101629-1.235062-0.30489-0.341063-0.203258-0.601167-0.501258-0.780311-0.893999-0.1757-0.392739-0.269287-0.87333-0.269287-1.441769z" sodipodiNodetypes="ccscsccccscsscc"/>
  </g>
  <path d="m68.560702 78.491796v-2.010209h0.811316v2.010209m2.945557-1.777661-3.756935 0.0013v-0.997352l4.573421-0.0013-0.0091 0.992123" fill="#b36b39" stroke-width=".264583" sodipodiNodetypes="cccccccccc"/>
  <path d="m72.317575 76.714135-3e-5 -0.232548h0.811316m2.945576 2.010209v-1.777664l-3.756862 3e-6 -8e-5 -0.996055 4.573422-0.0013v2.775016" fill="#b36b39" stroke-width=".264583" sodipodiNodetypes="cccccccccc"/>
  <g fill="#55a74d" stroke-width=".264583">
   <path d="m76.079597 78.491796h0.81132c0 0.389295 0.062 0.70452 0.18604 0.945676 0.12402 0.241155 0.29627 0.416854 0.51676 0.527095 0.22048 0.11369 0.47197 0.170533 0.75447 0.170533 0.25838 0 0.50126-0.05684 0.72864-0.170533 0.22737-0.110241 0.40996-0.285939 0.54776-0.527095 0.14125-0.241156 0.21188-0.556381 0.21188-0.945676h0.81648c0 0.568439-0.0982 1.049028-0.29455 1.441767-0.19637 0.392741-0.46853 0.690741-0.81649 0.893999-0.34451 0.203261-0.73897 0.30489-1.18338 0.30489-0.48232 0-0.894-0.101629-1.23507-0.30489-0.34106-0.203258-0.60116-0.501259-0.78031-0.893999-0.1757-0.392739-0.26355-0.873328-0.26355-1.441767z"/>
   <rect transform="rotate(90)" x="76.714127" y="-73.128876" width="1.7776639" height=".816486"/>
   <rect transform="rotate(90)" x="76.714127" y="-65.61515" width="1.7776639" height=".816486"/>
   <rect transform="rotate(90)" x="76.714127" y="-80.652939" width="1.7776639" height=".816486"/>
  </g>
  <g fill="#b36b39" stroke-width=".264583">
   <g transform="matrix(.8 0 0 .8 17.382798 34.991025)" aria-label="P">
    <path d="m76.161513 51.711017h-2.010207v-0.811318h2.010207c0.389295 0 0.70452-0.06201 0.945676-0.186034 0.241155-0.124023 0.416854-0.296278 0.527097-0.516763 0.113688-0.220485 0.170532-0.471976 0.170532-0.754473 0-0.258381-0.05684-0.50126-0.170532-0.728636-0.110243-0.227375-0.285942-0.409965-0.527097-0.547768-0.241156-0.141249-0.556381-0.211873-0.945676-0.211873h-1.777664l0.0013 3.756936h-0.997352l-0.0013-4.573421h2.775016c0.568439 0 1.049028 0.09819 1.441768 0.294555 0.392739 0.19637 0.690739 0.468532 0.893999 0.816485 0.20326 0.344509 0.30489 0.738971 0.30489 1.183386 0 0.482312-0.10163 0.894-0.30489 1.235063s-0.50126 0.601167-0.893999 0.780312c-0.39274 0.175699-0.873329 0.263549-1.441768 0.263549z" color="#000000" fill="#b36b39"/>
   </g>
   <g transform="matrix(0 -.32 .32 0 61.009171 96.504013)" aria-label="P">
    <path d="m76.161513 51.711017h-2.010207v-0.811318h2.010207c0.389295 0 0.70452-0.06201 0.945676-0.186034 0.241155-0.124023 0.416854-0.296278 0.527097-0.516763 0.113688-0.220485 0.170532-0.471976 0.170532-0.754473 0-0.258381-0.05684-0.50126-0.170532-0.728636-0.110243-0.227375-0.285942-0.409965-0.527097-0.547768-0.241156-0.141249-0.556381-0.211873-0.945676-0.211873h-1.777664l0.0013 3.756936h-0.997352l-0.0013-4.573421h2.775016c0.568439 0 1.049028 0.09819 1.441768 0.294555 0.392739 0.19637 0.690739 0.468532 0.893999 0.816485 0.20326 0.344509 0.30489 0.738971 0.30489 1.183386 0 0.482312-0.10163 0.894-0.30489 1.235063s-0.50126 0.601167-0.893999 0.780312c-0.39274 0.175699-0.873329 0.263549-1.441768 0.263549z" fill="#b36b39" sodipodiNodetypes="sccsscsccsccccsscsscs"/>
   </g>
   <g transform="matrix(0 -.32 .32 0 62.211391 96.503597)" aria-label="P">
    <path d="m76.161513 51.711017h-2.010207v-0.811318h2.010207c0.389295 0 0.70452-0.06201 0.945676-0.186034 0.241155-0.124023 0.416854-0.296278 0.527097-0.516763 0.113688-0.220485 0.170532-0.471976 0.170532-0.754473 0-0.258381-0.05684-0.50126-0.170532-0.728636-0.110243-0.227375-0.285942-0.409965-0.527097-0.547768-0.241156-0.141249-0.556381-0.211873-0.945676-0.211873h-1.777664l0.0013 3.756936h-0.997352l-0.0013-4.573421h2.775016c0.568439 0 1.049028 0.09819 1.441768 0.294555 0.392739 0.19637 0.690739 0.468532 0.893999 0.816485 0.20326 0.344509 0.30489 0.738971 0.30489 1.183386 0 0.482312-0.10163 0.894-0.30489 1.235063s-0.50126 0.601167-0.893999 0.780312c-0.39274 0.175699-0.873329 0.263549-1.441768 0.263549z" fill="#b36b39" sodipodiNodetypes="sccsscsccsccccsscsscs"/>
   </g>
  </g>
  <g transform="rotate(-45)" fill="#46433c" stroke-width=".132291" aria-label="!">
   <path d="m-4.8460901 98.990249-0.03359 2.700081h-0.4314968l-0.036173-2.700081zm-0.5167627 3.521741q0-0.11628 0.069763-0.19637 0.072347-0.0801 0.2118727-0.0801 0.1369421 0 0.2092889 0.0801 0.07493 0.0801 0.07493 0.19637 0 0.1111-0.07493 0.1912-0.072347 0.0801-0.2092889 0.0801-0.1395259 0-0.2118727-0.0801-0.069763-0.0801-0.069763-0.1912z"/>
  </g>
 </g>
</svg>
