<?xml version="1.0" encoding="UTF-8" standalone="no"?>
<!-- Created with Inkscape (http://www.inkscape.org/) -->

<svg
   width="15.854282mm"
   height="9.8455496mm"
   viewBox="0 0 15.854282 9.8455496"
   version="1.1"
   id="svg74993"
   inkscape:version="1.1.1 (3bf5ae0d25, 2021-09-20)"
   sodipodi:docname="logo-p.svg"
   xmlns:inkscape="http://www.inkscape.org/namespaces/inkscape"
   xmlns:sodipodi="http://sodipodi.sourceforge.net/DTD/sodipodi-0.dtd"
   xmlns="http://www.w3.org/2000/svg"
   xmlns:svg="http://www.w3.org/2000/svg">
  <sodipodi:namedview
     id="namedview74995"
     pagecolor="#ffffff"
     bordercolor="#666666"
     borderopacity="1.0"
     inkscape:pageshadow="2"
     inkscape:pageopacity="0.0"
     inkscape:pagecheckerboard="0"
     inkscape:document-units="mm"
     showgrid="false"
     fit-margin-top="0"
     fit-margin-left="0"
     fit-margin-right="0"
     fit-margin-bottom="0"
     inkscape:zoom="6.8737763"
     inkscape:cx="-10.183631"
     inkscape:cy="18.185055"
     inkscape:window-width="1856"
     inkscape:window-height="1050"
     inkscape:window-x="0"
     inkscape:window-y="0"
     inkscape:window-maximized="1"
     inkscape:current-layer="g855" />
  <defs
     id="defs74990" />
  <g
     inkscape:label="Capa 1"
     inkscape:groupmode="layer"
     id="layer1"
     transform="translate(-64.798664,-71.286903)">
    <g
       id="g855">
      <path
         d="m 64.803839,78.491796 h 0.811318 c 0,0.389295 0.06201,0.704519 0.186034,0.945676 0.124023,0.241155 0.296278,0.416854 0.516763,0.527095 0.220485,0.113689 0.471974,0.170532 0.754473,0.170532 0.258381,0 0.501258,-0.05684 0.728636,-0.170532 0.227375,-0.110241 0.409963,-0.28594 0.547766,-0.527095 0.141251,-0.241157 0.211873,-0.556381 0.211873,-0.945676 h 0.811316 c 0,0.568439 -0.09302,1.049028 -0.289385,1.441767 -0.196369,0.39274 -0.468532,0.69074 -0.816486,0.893998 -0.344509,0.203261 -0.738971,0.30489 -1.183386,0.30489 -0.482311,0 -0.893998,-0.101629 -1.235062,-0.30489 -0.341063,-0.203258 -0.601167,-0.501258 -0.780311,-0.893998 -0.1757,-0.392739 -0.263549,-0.873328 -0.263549,-1.441767 z"
         id="path16079-7"
         style="fill:#53a94c;fill-opacity:1;stroke-width:0.264583"
         sodipodi:nodetypes="ccscsccccscsscc" />
      <path
         d="m 68.5607,78.491796 h 0.811318 c 0,0.389295 0.06201,0.704519 0.186034,0.945676 0.124023,0.241155 0.296278,0.416854 0.516763,0.527095 0.220485,0.113689 0.471974,0.170532 0.754473,0.170532 0.258381,0 0.501258,-0.05684 0.728636,-0.170532 0.227375,-0.110241 0.409963,-0.28594 0.547766,-0.527095 0.141251,-0.241157 0.211873,-0.556381 0.211873,-0.945676 l 0.811319,-2e-6 c 0,0.568439 -0.09302,1.04903 -0.289388,1.441769 -0.196369,0.39274 -0.468532,0.69074 -0.816486,0.893998 -0.344509,0.203261 -0.738971,0.30489 -1.183386,0.30489 -0.482311,0 -0.893998,-0.101629 -1.235062,-0.30489 -0.341063,-0.203258 -0.601167,-0.501258 -0.780311,-0.893998 -0.1757,-0.392739 -0.263549,-0.873328 -0.263549,-1.441767 z"
         id="path16079-7-5"
         style="fill:#53a94c;fill-opacity:1;stroke-width:0.264583"
         sodipodi:nodetypes="ccscsccccscsscc" />
      <path
         d="m 72.311828,78.491794 0.817056,2e-6 c 0,0.389296 0.06201,0.70452 0.186034,0.945676 0.124023,0.241155 0.296278,0.416854 0.516763,0.527095 0.220485,0.11369 0.471974,0.170533 0.754473,0.170533 0.25838,0 0.50126,-0.05684 0.72864,-0.170533 0.227373,-0.110241 0.409963,-0.285939 0.547763,-0.527095 0.14125,-0.241156 0.21188,-0.55638 0.21188,-0.945676 h 0.81648 c 0,0.568439 -0.0982,1.049028 -0.29455,1.441767 -0.19637,0.392741 -0.46854,0.690741 -0.81649,0.893999 -0.34451,0.203261 -0.738973,0.30489 -1.183389,0.30489 -0.482311,0 -0.893998,-0.101629 -1.235062,-0.30489 -0.341063,-0.203258 -0.601167,-0.501258 -0.780311,-0.893999 -0.1757,-0.392739 -0.269287,-0.87333 -0.269287,-1.441769 z"
         id="path16079-7-3"
         style="fill:#53a94c;fill-opacity:1;stroke-width:0.264583"
         sodipodi:nodetypes="ccscsccccscsscc" />
      <path
         d="m 68.560702,78.491796 v -2.010209 h 0.811316 v 2.010209 m 2.945557,-1.777661 v 0 l -3.756935,0.0013 v -0.997352 l 4.573421,-0.0013 -0.0091,0.992123"
         id="path17441-5"
         style="fill:#b36b39;fill-opacity:1;stroke-width:0.264583"
         sodipodi:nodetypes="cccccccccc" />
      <path
         d="m 72.317575,76.714135 -3e-5,-0.232548 h 0.811316 v 0 m 2.945576,2.010209 v -1.777664 l -3.756862,3e-6 -8e-5,-0.996055 4.573422,-0.0013 v 2.775016"
         id="path17441-5-6"
         style="fill:#b36b39;fill-opacity:1;stroke-width:0.264583"
         sodipodi:nodetypes="cccccccccc" />
      <path
         d="m 76.079597,78.491796 h 0.81132 c 0,0.389295 0.062,0.70452 0.18604,0.945676 0.12402,0.241155 0.29627,0.416854 0.51676,0.527095 0.22048,0.11369 0.47197,0.170533 0.75447,0.170533 0.25838,0 0.50126,-0.05684 0.72864,-0.170533 0.22737,-0.110241 0.40996,-0.285939 0.54776,-0.527095 0.14125,-0.241156 0.21188,-0.556381 0.21188,-0.945676 h 0.81648 c 0,0.568439 -0.0982,1.049028 -0.29455,1.441767 -0.19637,0.392741 -0.46853,0.690741 -0.81649,0.893999 -0.34451,0.203261 -0.73897,0.30489 -1.18338,0.30489 -0.48232,0 -0.894,-0.101629 -1.23507,-0.30489 -0.34106,-0.203258 -0.60116,-0.501259 -0.78031,-0.893999 -0.1757,-0.392739 -0.26355,-0.873328 -0.26355,-1.441767 z"
         id="path16079-7-3-2"
         style="fill:#53a94c;fill-opacity:1;stroke-width:0.264583" />
      <rect
         style="fill:#53a94c;fill-opacity:1;stroke-width:0.264583"
         id="rect21941-1-2"
         width="1.7776639"
         height="0.816486"
         x="76.714127"
         y="-73.128876"
         transform="rotate(90)" />
      <rect
         style="fill:#53a94c;fill-opacity:1;stroke-width:0.264583"
         id="rect21941-1-2-7"
         width="1.7776639"
         height="0.816486"
         x="76.714127"
         y="-65.61515"
         transform="rotate(90)" />
      <rect
         style="fill:#53a94c;fill-opacity:1;stroke-width:0.264583"
         id="rect21941-1-2-0"
         width="1.7776639"
         height="0.816486"
         x="76.714127"
         y="-80.652939"
         transform="rotate(90)" />
      <g
         aria-label="P"
         id="text3069-9"
         style="font-size:10.5833px;font-family:Roboto;-inkscape-font-specification:Roboto;fill:#b36b39;fill-opacity:1;stroke-width:0.264583"
         transform="matrix(0.8,0,0,0.8,17.382798,34.991025)">
        <path
           style="color:#000000;-inkscape-font-specification:Roboto;fill:#b36b39;fill-opacity:1;-inkscape-stroke:none"
           d="m 76.161513,51.711017 h -2.010207 v -0.811318 h 2.010207 c 0.389295,0 0.70452,-0.06201 0.945676,-0.186034 0.241155,-0.124023 0.416854,-0.296278 0.527097,-0.516763 0.113688,-0.220485 0.170532,-0.471976 0.170532,-0.754473 0,-0.258381 -0.05684,-0.50126 -0.170532,-0.728636 -0.110243,-0.227375 -0.285942,-0.409965 -0.527097,-0.547768 -0.241156,-0.141249 -0.556381,-0.211873 -0.945676,-0.211873 h -1.777664 l 0.0013,3.756936 h -0.997352 l -0.0013,-4.573421 h 2.775016 c 0.568439,0 1.049028,0.09819 1.441768,0.294555 0.392739,0.19637 0.690739,0.468532 0.893999,0.816485 0.20326,0.344509 0.30489,0.738971 0.30489,1.183386 0,0.482312 -0.10163,0.894 -0.30489,1.235063 -0.20326,0.341063 -0.50126,0.601167 -0.893999,0.780312 -0.39274,0.175699 -0.873329,0.263549 -1.441768,0.263549 z"
           id="path14592-3" />
      </g>
      <g
         aria-label="P"
         id="text3069-3-6-61"
         style="font-size:10.5833px;line-height:1.25;font-family:Roboto;-inkscape-font-specification:Roboto;fill:#b36b39;fill-opacity:1;stroke-width:0.264583"
         transform="matrix(0,-0.32,0.32,0,61.009171,96.504013)">
        <path
           d="m 76.161513,51.711017 h -2.010207 v -0.811318 h 2.010207 c 0.389295,0 0.70452,-0.06201 0.945676,-0.186034 0.241155,-0.124023 0.416854,-0.296278 0.527097,-0.516763 0.113688,-0.220485 0.170532,-0.471976 0.170532,-0.754473 0,-0.258381 -0.05684,-0.50126 -0.170532,-0.728636 -0.110243,-0.227375 -0.285942,-0.409965 -0.527097,-0.547768 -0.241156,-0.141249 -0.556381,-0.211873 -0.945676,-0.211873 h -1.777664 l 0.0013,3.756936 h -0.997352 l -0.0013,-4.573421 h 2.775016 c 0.568439,0 1.049028,0.09819 1.441768,0.294555 0.392739,0.19637 0.690739,0.468532 0.893999,0.816485 0.20326,0.344509 0.30489,0.738971 0.30489,1.183386 0,0.482312 -0.10163,0.894 -0.30489,1.235063 -0.20326,0.341063 -0.50126,0.601167 -0.893999,0.780312 -0.39274,0.175699 -0.873329,0.263549 -1.441768,0.263549 z"
           id="path14592-6-0-8"
           sodipodi:nodetypes="sccsscsccsccccsscsscs"
           style="fill:#b36b39;fill-opacity:1" />
      </g>
      <g
         aria-label="P"
         id="text3069-3-6-6-7"
         style="font-size:10.5833px;line-height:1.25;font-family:Roboto;-inkscape-font-specification:Roboto;fill:#b36b39;fill-opacity:1;stroke-width:0.264583"
         transform="matrix(0,-0.32,0.32,0,62.211391,96.503597)">
        <path
           d="m 76.161513,51.711017 h -2.010207 v -0.811318 h 2.010207 c 0.389295,0 0.70452,-0.06201 0.945676,-0.186034 0.241155,-0.124023 0.416854,-0.296278 0.527097,-0.516763 0.113688,-0.220485 0.170532,-0.471976 0.170532,-0.754473 0,-0.258381 -0.05684,-0.50126 -0.170532,-0.728636 -0.110243,-0.227375 -0.285942,-0.409965 -0.527097,-0.547768 -0.241156,-0.141249 -0.556381,-0.211873 -0.945676,-0.211873 h -1.777664 l 0.0013,3.756936 h -0.997352 l -0.0013,-4.573421 h 2.775016 c 0.568439,0 1.049028,0.09819 1.441768,0.294555 0.392739,0.19637 0.690739,0.468532 0.893999,0.816485 0.20326,0.344509 0.30489,0.738971 0.30489,1.183386 0,0.482312 -0.10163,0.894 -0.30489,1.235063 -0.20326,0.341063 -0.50126,0.601167 -0.893999,0.780312 -0.39274,0.175699 -0.873329,0.263549 -1.441768,0.263549 z"
           id="path14592-6-0-2-9"
           sodipodi:nodetypes="sccsscsccsccccsscsscs"
           style="fill:#b36b39;fill-opacity:1" />
      </g>
      <g
         aria-label="!"
         transform="rotate(-45)"
         id="text70858-9"
         style="font-size:5.29165px;line-height:1.25;font-family:Roboto;-inkscape-font-specification:Roboto;fill:#46433c;stroke-width:0.132291">
        <path
           d="m -4.8460901,98.990249 -0.03359,2.700081 h -0.4314968 l -0.036173,-2.700081 z m -0.5167627,3.521741 q 0,-0.11628 0.069763,-0.19637 0.072347,-0.0801 0.2118727,-0.0801 0.1369421,0 0.2092889,0.0801 0.07493,0.0801 0.07493,0.19637 0,0.1111 -0.07493,0.1912 -0.072347,0.0801 -0.2092889,0.0801 -0.1395259,0 -0.2118727,-0.0801 -0.069763,-0.0801 -0.069763,-0.1912 z"
           id="path919" />
      </g>
    </g>
  </g>
</svg>
