<?xml version="1.0" encoding="UTF-8" standalone="no"?>
<!-- Created with sK1/UniConvertor (http://sk1project.org/) -->

<svg
   width="562.88995pt"
   height="511.6398pt"
   viewBox="0 0 562.88995 511.63979"
   fill-rule="evenodd"
   id="svg3021"
   version="1.1"
   inkscapeVersion="1.1.1 (3bf5ae0d25, 2021-09-20)"
   sodipodiDocname="Paw_exit.svg"
   xmlnsInkscape="http://www.inkscape.org/namespaces/inkscape"
   xmlnsSodipodi="http://sodipodi.sourceforge.net/DTD/sodipodi-0.dtd"
   xmlns="http://www.w3.org/2000/svg"
   xmlnsSvg="http://www.w3.org/2000/svg"
   xmlnsRdf="http://www.w3.org/1999/02/22-rdf-syntax-ns#"
   xmlnsCc="http://creativecommons.org/ns#"
   xmlnsDc="http://purl.org/dc/elements/1.1/">
  <metadata
     id="metadata3039">
    <rdfRDF>
      <ccWork
         rdfAbout="">
        <dcFormat>image/svg+xml</dcFormat>
        <dcType
           rdfResource="http://purl.org/dc/dcmitype/StillImage" />
      </ccWork>
    </rdfRDF>
  </metadata>
  <defs
     id="defs3037" />
  <sodipodiNamedview
     pagecolor="#ffffff"
     bordercolor="#666666"
     borderopacity="1"
     objecttolerance="10"
     gridtolerance="10"
     guidetolerance="10"
     inkscapePageopacity="0"
     inkscapePageshadow="2"
     inkscapeWindow-width="1856"
     inkscapeWindow-height="1050"
     id="namedview3035"
     showgrid="false"
     inkscapeZoom="0.46846973"
     inkscapeCx="347.94137"
     inkscapeCy="164.36494"
     inkscapeWindow-x="0"
     inkscapeWindow-y="0"
     inkscapeWindow-maximized="1"
     inkscapeCurrent-layer="svg3021"
     inkscapePagecheckerboard="0"
     inkscapeDocument-units="pt" />
  <g
     id="g3023"
     transform="translate(253.00079,-852.07469)"
     style="fill:#000000">
    <path
       id="path887"
       style="fill:#000000;stroke:none;stroke-width:1.33333"
       d="M 245.64258 0.06640625 C 242.82229 0.20803418 240.01013 0.5766875 237.21289 1.1796875 C 192.45662 10.823687 168.76931 77.085115 184.30664 149.17578 C 199.84397 221.26111 248.7227 271.88805 293.47656 262.24805 C 338.23376 252.59471 361.92255 186.33419 346.38281 114.24219 C 331.81681 46.655938 287.94695 -2.0580127 245.64258 0.06640625 z M 503.75781 0.12890625 C 461.45254 -1.9936084 417.58589 46.718437 403.02539 114.30469 C 387.49926 186.39535 411.16996 252.66078 455.92383 262.30078 C 477.98751 267.05957 501.03481 257.11958 520.61328 237.23047 L 462.77734 155.85742 A 59.71968 59.71968 0 0 1 477.10938 72.25 A 59.71968 59.71968 0 0 1 560.12109 86.582031 L 569.71094 100.18359 C 568.29035 49.224144 546.45422 8.6231499 512.18945 1.2402344 C 509.39214 0.63740104 506.57816 0.27040723 503.75781 0.12890625 z M 569.71094 100.18359 C 570.14601 115.79038 568.73687 132.33595 565.09375 149.23828 C 557.21651 185.78986 540.75029 216.77396 520.61328 237.23047 L 565.49609 300.37891 L 408.50977 300.37891 C 432.70726 310.09727 451.70471 328.60422 458.77539 342.52734 C 468.24944 361.18761 489.4384 391.79157 512.13867 419.81836 L 560.12109 419.81836 L 537.80469 449.57227 C 547.86464 460.29364 557.49166 469.41047 565.74414 475.5 C 585.30864 489.9439 607.9965 510.8593 619.80078 539.3125 L 727.33594 395.93164 A 59.71968 59.71968 0 0 0 728.5957 325.56445 C 697.35484 387.60779 642.18531 422.8866 602.22461 404.86133 C 560.48461 386.03466 551.22368 316.28654 581.54102 249.0332 C 593.68362 222.10874 610.36076 199.78751 628.64062 183.77344 L 569.71094 100.18359 z M 628.64062 183.77344 L 728.5293 325.46094 A 59.71968 59.71968 0 0 1 728.5957 325.56445 C 729.98466 322.80603 731.39491 320.06924 732.68555 317.20703 C 762.99755 249.96703 753.73795 180.21463 712.00195 161.39062 C 686.98346 150.10948 655.99943 159.80576 628.64062 183.77344 z M 619.80078 539.3125 L 548.17578 634.81055 A 59.71968 59.71968 0 0 1 500.40039 658.69727 A 59.71968 59.71968 0 0 1 464.56836 646.75391 A 59.71968 59.71968 0 0 1 452.625 563.14648 L 537.80469 449.57227 C 529.3639 440.57651 520.6747 430.35733 512.13867 419.81836 L 237.96289 419.81836 C 223.02619 435.3656 207.27807 449.66656 193.8125 457.86133 C 158.8045 479.16799 115.42312 510.36781 122.70312 582.00781 C 129.97913 653.66115 203.47001 684.32742 251.84961 681.60742 C 300.23188 678.90076 391.44733 669.99286 456.57227 679.01953 C 521.694 688.0462 603.88677 681.20742 623.13477 612.60742 C 631.17243 583.96112 628.2643 559.71309 619.80078 539.3125 z M 237.96289 419.81836 C 261.86212 394.94225 283.64321 366.84473 290.36523 355.23438 C 307.5209 325.61982 326.50333 308.71618 345.40234 300.37891 L 184.57617 300.37891 C 192.36317 348.71339 179.32619 390.86522 148.29883 404.86133 C 110.71223 421.8157 59.670749 391.59028 27.738281 336.32031 A 59.71968 59.71968 0 0 0 82.363281 419.81836 L 237.96289 419.81836 z M 27.738281 336.32031 A 59.71968 59.71968 0 0 1 82.363281 300.37891 L 184.57617 300.37891 C 181.8886 283.69696 176.75701 266.28909 168.97852 249.0332 C 138.66252 181.81187 80.254911 142.57196 38.517578 161.39062 C -3.2197552 180.21463 -12.478109 249.96703 17.837891 317.20703 C 20.852519 323.89398 24.211941 330.21678 27.738281 336.32031 z M 345.40234 300.37891 L 408.50977 300.37891 C 389.63014 292.79635 367.62076 290.57729 345.40234 300.37891 z "
       transform="matrix(0.75,0,0,0.75,-253.00079,852.07469)" />
  </g>
</svg>
