<?xml version="1.0" standalone="no"?>
<!DOCTYPE svg PUBLIC "-//W3C//DTD SVG 20010904//EN"
 "http://www.w3.org/TR/2001/REC-SVG-20010904/DTD/svg10.dtd">
<svg version="1.0" xmlns="http://www.w3.org/2000/svg"
 width="300.000000pt" height="310.000000pt" viewBox="0 0 300.000000 310.000000"
 preserveAspectRatio="xMidYMid meet">
<metadata>
Created by potrace 1.10, written by Peter Selinger 2001-2011
</metadata>
<g transform="translate(0.000000,310.000000) scale(0.050000,-0.050000)"
fill="#000000" stroke="none">
<path d="M401 5855 c-80 -48 -123 -93 -169 -175 l-62 -110 -5 -2586 c-4 -1783
1 -2597 15 -2625 27 -50 1176 -62 1217 -13 12 15 24 133 27 271 l6 244 1332
-1 c1115 0 1336 4 1356 27 61 74 293 1126 342 1553 13 105 29 208 36 230 8 22
19 -495 24 -1150 l10 -1190 570 -6 c314 -3 590 0 615 6 l45 11 0 2614 c-1
2927 11 2694 -143 2839 -141 134 38 126 -2662 126 l-2447 0 -107 -65z m5051
-146 c152 -113 138 156 138 -2682 l0 -2530 -455 -4 -455 -3 0 2151 c0 1646 -6
2157 -24 2175 -29 29 -3328 35 -3373 6 -20 -12 -31 -114 -44 -384 -65 -1352
-258 -2625 -528 -3474 -26 -84 31 -104 301 -104 l250 0 -6 -182 -6 -182 -455
-3 -455 -3 0 2516 c0 2857 -14 2623 164 2712 l86 42 2404 -5 c2392 -5 2403 -5
2458 -46z m-942 -1074 c-1 -410 -106 -1536 -201 -2138 -72 -465 -279 -1413
-315 -1450 -5 -5 -2914 -12 -3079 -7 -7 0 -5 25 7 55 201 527 416 1996 489
3345 l12 230 1544 -5 c1231 -3 1543 -9 1543 -30z"/>
<path d="M3966 4275 c-11 -14 -30 -178 -44 -365 -30 -416 -74 -854 -113 -1119
-38 -260 -38 -268 22 -295 97 -44 119 11 166 414 93 785 131 1297 102 1352
-23 43 -104 51 -133 13z"/>
<path d="M3708 2097 c-7 -12 -39 -140 -70 -285 -31 -144 -62 -281 -69 -304
-29 -100 120 -143 164 -48 53 113 136 595 108 629 -30 36 -112 41 -133 8z"/>
</g>
</svg>
