<svg width="800px" height="800px" enable-background="new 0 0 64 64" version="1.0" viewBox="0 0 64 64" xml:space="preserve" xmlns="http://www.w3.org/2000/svg">
<g transform="matrix(1 0 0 .91093701 0 5.7000313)"><path d="m25.868125-6.1496875a6.79104 6.79104 0 0 0-6.827969 6.8684375c0 2.3278631 1.382558 4.8975927 3.244219 7.3029687l6.849687-6.8496874c0.781-0.78099927 1.80497-1.1720313 2.827969-1.1720313s2.04697 0.39103203 2.827969 1.1720313l6.892813 6.8928124c1.878504-2.4177495 3.277343-5.0043305 3.277343-7.3460937a6.804 6.804 0 0 0-6.803906-6.8040625 6.79104 6.79104 0 0 0-6.156094 3.888125 6.79104 6.79104 0 0 0-6.132031-3.9525zm15.814688 14.2145312c-3.839396 4.9415353-9.682657 9.1779683-9.682657 9.1779683s-5.876975-4.261129-9.715781-9.2210933l-21.1503125 21.1503123c-1.56199844 1.565999-1.48402969 4.015971 0.077969 5.577969 1.5659984 1.569998 3.8550328 1.801061 5.4220312 0.234063l1.3659373-1.367032v26.382969c0 2.210998 1.7890022 4 4 4h16v-16h8v16h16c2.210998 0 4-1.789002 4-4v-26.305l1.195 1.195c1.561998 1.561998 3.948939 1.422061 5.515938-0.140937 1.562998-1.560999 1.64506-4.015033 0.07906-5.577032z"/></g>
</svg>
