<?xml version="1.0" encoding="UTF-8"?>
<!-- Generator: Adobe Illustrator 19.0.0, SVG Export Plug-In . SVG Version: 6.00 Build 0)  -->
<svg width="244.50951" height="231.94104" inkscapeVersion="1.1.1 (3bf5ae0d25, 2021-09-20)" sodipodiDocname="shelter.svg" version="1.1" viewBox="0 0 244.5095 231.94103" xmlSpace="preserve" xmlns="http://www.w3.org/2000/svg" xmlnsSvg="http://www.w3.org/2000/svg">
 <sodipodiNamedview bordercolor="#666666" borderopacity="1.0" inkscapeCurrent-layer="g8" inkscapeCx="122.16037" inkscapeCy="64.035677" inkscapePagecheckerboard="0" inkscapePageopacity="0.0" inkscapePageshadow="2" inkscapeWindow-height="1050" inkscapeWindow-maximized="1" inkscapeWindow-width="1856" inkscapeWindow-x="0" inkscapeWindow-y="0" inkscapeZoom="2.0301183" pagecolor="#ffffff" showgrid="false"/>
 <g transform="translate(-45.715395,-103.99995)">
  <path transform="translate(45.715395,103.99995)" d="m91.650391 0c-33.163 0.096-50.217141 39.849937-27.619141 63.960938 0.09 0.104 0.180391 0.204687 0.275391 0.304687l11.138671 11.578125c-29.983851 18.652012-62.79925 39.06475-71.9062495 44.73047-3.517 2.188-4.59425 6.81308-2.40625 10.33008 2.19 3.521 6.817125 4.59225 10.3281255 2.40625l12.796874-7.96094v99.0918c0 4.143 3.358001 7.5 7.5 7.5h67.978516c4.142002 0 7.500002-3.357 7.500002-7.5v-52.25977h30.03711v52.25977c0 4.143 3.358 7.5 7.5 7.5h67.97656c4.142 0 7.5-3.357 7.5-7.5v-99.0918c13.856 8.62 13.96895 9.09375 16.75195 9.09375 7.507-1e-3 10.37171-9.88814 3.97071-13.86914-6.97343-4.33795-41.06749-25.546508-71.90625-44.73047l11.13867-11.578125c0.097-0.102 0.19125-0.204547 0.28125-0.310547 22.564-24.08 5.569-63.859078-27.625-63.955078-12.594-0.019-23.62347 5.9703594-30.60547 15.318359-7.029-9.4119996-18.07709-15.318359-30.496094-15.318359zm30.741739 60.38706c38.51089 28.900334-2.56245-1.59949 35.05003 26.285605l-20.13294 20.134335c-9.96885 9.598-18.50476 9.81495-29.1848-0.0628l-21.435786-20.457762c38.055986-27.497941-0.886353 0.696394 35.703496-25.899378z"/>
 </g>
</svg>
